<?xml version="1.0" encoding="UTF-8" standalone="no"?>
<!-- Created with Inkscape (http://www.inkscape.org/) -->

<svg
   xmlns:dc="http://purl.org/dc/elements/1.1/"
   xmlns:cc="http://creativecommons.org/ns#"
   xmlns:rdf="http://www.w3.org/1999/02/22-rdf-syntax-ns#"
   xmlns:svg="http://www.w3.org/2000/svg"
   xmlns="http://www.w3.org/2000/svg"
   xmlns:xlink="http://www.w3.org/1999/xlink"
   xmlns:sodipodi="http://sodipodi.sourceforge.net/DTD/sodipodi-0.dtd"
   xmlns:inkscape="http://www.inkscape.org/namespaces/inkscape"
   width="500"
   height="500.00003"
   viewBox="0 0 500.00001 500.00006"
   id="svg2"
   version="1.1"
   inkscape:version="0.91 r13725"
   sodipodi:docname="logo-smaller.svg"
   inkscape:export-filename="/Users/braden/projects/fnx/logo/logo-smaller.png"
   inkscape:export-xdpi="90"
   inkscape:export-ydpi="90">
  <defs
     id="defs4">
    <linearGradient
       inkscape:collect="always"
       id="linearGradient4246">
      <stop
         style="stop-color:#ff8366;stop-opacity:1"
         offset="0"
         id="stop4248" />
      <stop
         style="stop-color:#ff0066;stop-opacity:1"
         offset="1"
         id="stop4250" />
    </linearGradient>
    <radialGradient
       inkscape:collect="always"
       xlink:href="#linearGradient4246"
       id="radialGradient4411"
       cx="-26.069838"
       cy="2243.1853"
       fx="-26.069838"
       fy="2243.1853"
       r="165.44899"
       gradientUnits="userSpaceOnUse"
       gradientTransform="matrix(0,2.0283862,-2.0283865,0,4523.9768,2296.065)" />
  </defs>
  <sodipodi:namedview
     id="base"
     pagecolor="#ffffff"
     bordercolor="#666666"
     borderopacity="1.0"
     inkscape:pageopacity="0.0"
     inkscape:pageshadow="2"
     inkscape:zoom="0.49497475"
     inkscape:cx="139.97757"
     inkscape:cy="151.20512"
     inkscape:document-units="px"
     inkscape:current-layer="text4362"
     showgrid="false"
     inkscape:window-width="1276"
     inkscape:window-height="756"
     inkscape:window-x="4"
     inkscape:window-y="0"
     inkscape:window-maximized="1"
     fit-margin-top="0"
     fit-margin-left="0"
     fit-margin-right="0"
     fit-margin-bottom="0"
     units="px">
    <inkscape:grid
       type="xygrid"
       id="grid4144"
       originx="-16.280311"
       originy="1604.3704" />
  </sodipodi:namedview>
  <metadata
     id="metadata7">
    <rdf:RDF>
      <cc:Work
         rdf:about="">
        <dc:format>image/svg+xml</dc:format>
        <dc:type
           rdf:resource="http://purl.org/dc/dcmitype/StillImage" />
        <dc:title></dc:title>
      </cc:Work>
    </rdf:RDF>
  </metadata>
  <g
     inkscape:label="Layer 1"
     inkscape:groupmode="layer"
     id="layer1"
     transform="translate(-16.28036,-2156.7323)">
    <g
       style="font-style:normal;font-variant:normal;font-weight:normal;font-stretch:normal;font-size:65.03916931px;line-height:129.99999523%;font-family:Courier;-inkscape-font-specification:'Courier, Normal';text-align:start;letter-spacing:0px;word-spacing:0px;writing-mode:lr-tb;text-anchor:start;fill:#00aad4;fill-opacity:1;stroke:none;stroke-width:1px;stroke-linecap:butt;stroke-linejoin:miter;stroke-opacity:1"
       id="text4362"
       transform="matrix(1.5110399,0,0,1.5110399,61.215975,-1259.592)">
      <rect
         style="opacity:1;fill:url(#radialGradient4411);fill-opacity:1;fill-rule:evenodd;stroke:none;stroke-width:20;stroke-linecap:butt;stroke-linejoin:miter;stroke-miterlimit:4;stroke-dasharray:none;stroke-opacity:1"
         id="rect4395"
         width="330.89798"
         height="330.89798"
         x="-29.738226"
         y="2260.9094"
         ry="165.44899"
         rx="165.44899" />
      <path
         style="font-style:normal;font-variant:normal;font-weight:900;font-stretch:normal;font-size:65.03874969px;line-height:129.99999523%;font-family:'Avenir Next';-inkscape-font-specification:'Avenir Next, Heavy';text-align:start;writing-mode:lr-tb;text-anchor:start;fill:#ffffff;fill-opacity:1;stroke:none"
         d="m 67.733912,2368.1742 c -7.10633,0 -13.028259,0.9879 -17.765812,2.962 -4.63885,1.974 -8.337475,4.688 -11.101047,8.1424 -2.76357,3.3558 -4.739859,7.2531 -5.924232,11.6949 -1.08569,4.4412 -1.629512,9.0818 -1.629512,13.9181 l 0,1.7763 -13.32263,0 0,24.4273 13.32263,0 0,53.4474 34.050561,0 0,-53.4474 14.403217,0 0,53.4474 34.200753,0 0,-41.4541 c 0,-3.4545 0.68963,-6.0706 2.07141,-7.8472 1.48049,-1.875 3.35553,-2.8137 5.62561,-2.8137 2.46747,0 4.29449,0.7892 5.47889,2.3682 1.28308,1.5796 1.92469,4.3447 1.92469,8.2927 l 0,41.4541 34.34746,0 26.20511,0 12.734,-17.6191 11.99001,17.6191 39.08583,0 -29.46239,-39.9747 27.98134,-37.9 -37.60478,0 -11.10105,16.2864 -11.25465,-16.2864 -38.78894,0 27.98133,37.9 -17.76581,23.6296 0,-31.0316 c 0,-3.8494 -0.44432,-7.7005 -1.33261,-11.5498 -0.78958,-3.8493 -2.27179,-7.3026 -4.44318,-10.3623 -2.07269,-3.1582 -4.93241,-5.7228 -8.58428,-7.6968 -3.55316,-1.9742 -8.04435,-2.9623 -13.4728,-2.9623 -5.03365,0 -9.52485,1.0842 -13.47282,3.2556 -3.84925,2.0728 -6.7622,4.5413 -8.73617,7.4035 l -0.29345,0 0,-8.5859 -31.28006,0 -2.033443,0 -14.403217,0 0,-1.0356 c 0,-3.1586 0.641598,-5.7745 1.924685,-7.8474 1.38179,-2.0727 3.752634,-3.1088 7.108398,-3.1088 1.184391,0 2.368086,0.1478 3.552471,0.4437 1.184392,0.1974 2.220562,0.4942 3.108845,0.889 l 2.22159,-25.613 c -2.072678,-0.7897 -4.640805,-1.3335 -7.700476,-1.6296 -2.960969,-0.3946 -5.575388,-0.592 -7.845471,-0.592 z"
         id="path4317"
         inkscape:connector-curvature="0" />
    </g>
  </g>
</svg>
