<svg xmlns="http://www.w3.org/2000/svg" xmlns:xlink="http://www.w3.org/1999/xlink" width="583.603" height="191.668" viewBox="0 0 583.60298 191.66798"><defs><linearGradient id="b"><stop offset="0" stop-color="#ff8366"/><stop offset="1" stop-color="#f06"/></linearGradient><linearGradient id="a"><stop offset="0"/><stop offset="1" stop-opacity="0"/></linearGradient><linearGradient xlink:href="#a" id="d" x1="638.781" y1="56.553" x2="638.781" y2="149.487" gradientUnits="userSpaceOnUse"/><radialGradient xlink:href="#b" id="c" cx="481.688" cy="-1427.869" fx="481.688" fy="-1427.869" r="261.801" gradientTransform="matrix(0 1.13588 -1.12164 0 -1178.078 -541.212)" gradientUnits="userSpaceOnUse"/></defs><g style="line-height:129.99999523%;-inkscape-font-specification:'Courier, Normal';text-align:start" font-weight="900" font-size="65.039" font-family="Avenir Next" letter-spacing="0" word-spacing="0" fill="#00aad4"><path style="line-height:129.99999523%;-inkscape-font-specification:'Avenir Next, Heavy';text-align:start" d="M205.838 30c-8.04 0-14.741 1.118-20.102 3.352-5.248 2.233-9.433 5.304-12.56 9.212-3.127 3.797-5.363 8.207-6.703 13.233-1.229 5.025-1.844 10.276-1.844 15.748v2.01h-15.074v27.638h15.074v60.475h38.527v-60.475h16.297v60.475h38.697v-46.904c0-3.909.78-6.869 2.344-8.88 1.675-2.12 3.797-3.183 6.365-3.183 2.792 0 4.86.893 6.2 2.68 1.451 1.787 2.177 4.916 2.177 9.383v46.904h68.514l14.408-19.936 13.567 19.936h44.224l-33.336-45.23 31.66-42.883h-42.548l-12.56 18.427-12.735-18.427H302.54l31.66 42.882-20.101 26.737v-35.111c0-4.356-.503-8.714-1.508-13.069-.894-4.355-2.57-8.263-5.028-11.724-2.345-3.574-5.58-6.476-9.712-8.71-4.02-2.233-9.102-3.351-15.245-3.351-5.695 0-10.777 1.227-15.244 3.684-4.355 2.345-7.651 5.138-9.884 8.377h-.333v-9.715H203.156v-1.172c0-3.574.726-6.534 2.178-8.88 1.563-2.344 4.246-3.517 8.043-3.517 1.34 0 2.68.167 4.02.502 1.34.224 2.512.56 3.517 1.006l2.514-28.98c-2.345-.894-5.251-1.509-8.713-1.844-3.35-.447-6.309-.67-8.877-.67zm445.07 1.727a7.537 7.537 0 0 0-6.99 5.597L614.182 148.3a7.54 7.54 0 0 0 5.343 9.254l14.381 3.853a7.54 7.54 0 0 0 9.254-5.344l29.736-110.974a7.538 7.538 0 0 0-5.343-9.252l-14.381-3.854a7.606 7.606 0 0 0-2.264-.255zm-32.385 7.877a7.539 7.539 0 0 0-6.742 3.783l-57.445 99.496a7.538 7.538 0 0 0 2.766 10.32l12.894 7.445a7.538 7.538 0 0 0 10.32-2.765l57.446-99.496a7.54 7.54 0 0 0-2.766-10.323l-12.894-7.443a7.546 7.546 0 0 0-3.579-1.017zm-43.195 15.171a7.53 7.53 0 0 0-5.342 2.22l-81.24 81.24a7.537 7.537 0 0 0 0 10.683l10.53 10.53a7.537 7.537 0 0 0 10.683 0l81.24-81.239a7.54 7.54 0 0 0 0-10.686l-10.53-10.529a7.53 7.53 0 0 0-5.34-2.219zm-63.516 21.432a7.547 7.547 0 0 0-3.578 1.016l-99.496 57.445a7.538 7.538 0 0 0-2.765 10.32l7.445 12.895a7.538 7.538 0 0 0 10.32 2.765l99.496-57.445A7.538 7.538 0 0 0 526 92.883l-7.443-12.895a7.54 7.54 0 0 0-6.745-3.781z" transform="translate(-119.555)" fill="url(#c)"/><path style="line-height:129.99999523%;-inkscape-font-specification:'Avenir Next, Heavy';text-align:start" d="M638.781 56.494l-24.6 91.805a7.54 7.54 0 0 0 5.344 9.254l14.381 3.853a7.525 7.525 0 0 0 4.875-.33V56.494zm-45.363 18.697l-39.082 67.692a7.538 7.538 0 0 0 2.766 10.32l12.894 7.445a7.538 7.538 0 0 0 10.32-2.765l13.102-22.692v-60zm-66.398 24.77l-38.274 38.273a7.537 7.537 0 0 0 0 10.684l10.53 10.53a7.537 7.537 0 0 0 10.683 0l17.06-17.061V99.96z" transform="translate(-119.555)" opacity=".25" fill="url(#d)"/></g></svg>