<?xml version="1.0" encoding="UTF-8" standalone="no"?>
<!-- Created with Inkscape (http://www.inkscape.org/) -->

<svg
   xmlns:dc="http://purl.org/dc/elements/1.1/"
   xmlns:cc="http://creativecommons.org/ns#"
   xmlns:rdf="http://www.w3.org/1999/02/22-rdf-syntax-ns#"
   xmlns:svg="http://www.w3.org/2000/svg"
   xmlns="http://www.w3.org/2000/svg"
   xmlns:xlink="http://www.w3.org/1999/xlink"
   xmlns:sodipodi="http://sodipodi.sourceforge.net/DTD/sodipodi-0.dtd"
   xmlns:inkscape="http://www.inkscape.org/namespaces/inkscape"
   width="500"
   height="500.00003"
   viewBox="0 0 500.00001 500.00006"
   id="svg2"
   version="1.1"
   inkscape:version="0.91 r13725"
   sodipodi:docname="logo-smaller.svg"
   inkscape:export-filename="/Users/braden/projects/fnx/logo/logo-smaller.png"
   inkscape:export-xdpi="90"
   inkscape:export-ydpi="90">
  <defs
     id="defs4">
    <linearGradient
       inkscape:collect="always"
       id="linearGradient4246">
      <stop
         style="stop-color:#ff8366;stop-opacity:1"
         offset="0"
         id="stop4248" />
      <stop
         style="stop-color:#ff0066;stop-opacity:1"
         offset="1"
         id="stop4250" />
    </linearGradient>
    <radialGradient
       inkscape:collect="always"
       xlink:href="#linearGradient4246"
       id="radialGradient4411"
       cx="-26.069838"
       cy="2243.1853"
       fx="-26.069838"
       fy="2243.1853"
       r="165.44899"
       gradientUnits="userSpaceOnUse"
       gradientTransform="matrix(0,3.0649723,-3.0649728,0,6880.8447,53.121374)" />
  </defs>
  <sodipodi:namedview
     id="base"
     pagecolor="#ffffff"
     bordercolor="#666666"
     borderopacity="1.0"
     inkscape:pageopacity="0.0"
     inkscape:pageshadow="2"
     inkscape:zoom="0.49497475"
     inkscape:cx="144.93178"
     inkscape:cy="398.94171"
     inkscape:document-units="px"
     inkscape:current-layer="text4362"
     showgrid="false"
     inkscape:window-width="1276"
     inkscape:window-height="756"
     inkscape:window-x="4"
     inkscape:window-y="0"
     inkscape:window-maximized="1"
     fit-margin-top="0"
     fit-margin-left="0"
     fit-margin-right="0"
     fit-margin-bottom="0"
     units="px">
    <inkscape:grid
       type="xygrid"
       id="grid4144"
       originx="-16.280311"
       originy="1604.3704" />
  </sodipodi:namedview>
  <metadata
     id="metadata7">
    <rdf:RDF>
      <cc:Work
         rdf:about="">
        <dc:format>image/svg+xml</dc:format>
        <dc:type
           rdf:resource="http://purl.org/dc/dcmitype/StillImage" />
        <dc:title />
      </cc:Work>
    </rdf:RDF>
  </metadata>
  <g
     inkscape:label="Layer 1"
     inkscape:groupmode="layer"
     id="layer1"
     transform="translate(-16.28036,-2156.7323)">
    <g
       style="font-style:normal;font-variant:normal;font-weight:normal;font-stretch:normal;font-size:65.03916931px;line-height:129.99999523%;font-family:Courier;-inkscape-font-specification:'Courier, Normal';text-align:start;letter-spacing:0px;word-spacing:0px;writing-mode:lr-tb;text-anchor:start;fill:#00aad4;fill-opacity:1;stroke:none;stroke-width:1px;stroke-linecap:butt;stroke-linejoin:miter;stroke-opacity:1"
       id="text4362"
       transform="matrix(1.5110399,0,0,1.5110399,61.215975,-1259.592)">
      <path
         style="opacity:1;fill:url(#radialGradient4411);fill-opacity:1;fill-rule:evenodd;stroke:none;stroke-width:20;stroke-linecap:butt;stroke-linejoin:miter;stroke-miterlimit:4;stroke-dasharray:none;stroke-opacity:1"
         d="M 9.0664062 0 C 4.0437099 0 0 4.0437099 0 9.0664062 L 0 490.93359 C 0 495.95629 4.0437099 500 9.0664062 500 L 490.93359 500 C 495.95629 500 500 495.95629 500 490.93359 L 500 9.0664062 C 500 4.0437099 495.95629 0 490.93359 0 L 9.0664062 0 z M 147.28516 162.08203 C 150.71534 162.08203 154.66453 162.38031 159.13867 162.97656 C 163.76196 163.42398 167.64349 164.24423 170.77539 165.4375 L 167.41797 204.14062 C 166.07574 203.54407 164.51037 203.09515 162.7207 202.79688 C 160.93105 202.34976 159.14122 202.12695 157.35156 202.12695 C 152.28087 202.12695 148.69927 203.69229 146.61133 206.82422 C 144.67253 209.95645 143.70312 213.90887 143.70312 218.68164 L 143.70312 220.24609 L 165.4668 220.24609 L 168.53906 220.24609 L 215.80469 220.24609 L 215.80469 233.2207 L 216.24805 233.2207 C 219.23079 228.8958 223.63285 225.16529 229.44922 222.0332 C 235.41476 218.75213 242.2006 217.11328 249.80664 217.11328 C 258.00924 217.11328 264.7951 218.60675 270.16406 221.58984 C 275.68218 224.57264 280.0048 228.44854 283.13672 233.2207 C 286.41778 237.84403 288.65652 243.06246 289.84961 248.87891 C 291.19185 254.69535 291.86328 260.51348 291.86328 266.33008 L 291.86328 313.2207 L 318.70898 277.51562 L 276.42773 220.24609 L 335.03906 220.24609 L 352.04492 244.85547 L 368.82031 220.24609 L 425.64258 220.24609 L 383.36133 277.51562 L 427.87891 337.91797 L 368.82031 337.91797 L 350.70117 311.29492 L 331.46094 337.91797 L 291.86328 337.91797 L 239.96289 337.91797 L 239.96289 275.2793 C 239.96289 269.31371 238.99347 265.13684 237.05469 262.75 C 235.26501 260.36407 232.50384 259.16992 228.77539 259.16992 C 225.34521 259.16992 222.51247 260.58868 220.27539 263.42188 C 218.18747 266.10639 217.14648 270.05941 217.14648 275.2793 L 217.14648 337.91797 L 165.4668 337.91797 L 165.4668 257.1582 L 143.70312 257.1582 L 143.70312 337.91797 L 92.251953 337.91797 L 92.251953 257.1582 L 72.121094 257.1582 L 72.121094 220.24609 L 92.251953 220.24609 L 92.251953 217.5625 C 92.251953 210.25466 93.07237 203.24208 94.712891 196.53125 C 96.502525 189.81951 99.490151 183.93208 103.66602 178.86133 C 107.84188 173.64159 113.42997 169.53943 120.43945 166.55664 C 127.59808 163.5737 136.54721 162.08203 147.28516 162.08203 z "
         transform="matrix(0.66179593,0,0,0.66179593,-29.738216,2260.9094)"
         id="rect4395" />
    </g>
  </g>
</svg>
