<?xml version="1.0" encoding="UTF-8" standalone="no"?>
<!-- Created with Inkscape (http://www.inkscape.org/) -->

<svg
   xmlns:dc="http://purl.org/dc/elements/1.1/"
   xmlns:cc="http://creativecommons.org/ns#"
   xmlns:rdf="http://www.w3.org/1999/02/22-rdf-syntax-ns#"
   xmlns:svg="http://www.w3.org/2000/svg"
   xmlns="http://www.w3.org/2000/svg"
   xmlns:sodipodi="http://sodipodi.sourceforge.net/DTD/sodipodi-0.dtd"
   xmlns:inkscape="http://www.inkscape.org/namespaces/inkscape"
   width="181.47539mm"
   height="37.159626mm"
   viewBox="0 0 643.02304 131.66797"
   id="svg2"
   version="1.1"
   inkscape:version="0.91 r13725"
   sodipodi:docname="logo.svg">
  <defs
     id="defs4" />
  <sodipodi:namedview
     id="base"
     pagecolor="#ffffff"
     bordercolor="#666666"
     borderopacity="1.0"
     inkscape:pageopacity="0.0"
     inkscape:pageshadow="2"
     inkscape:zoom="0.7"
     inkscape:cx="402.31838"
     inkscape:cy="90.588555"
     inkscape:document-units="px"
     inkscape:current-layer="text4362"
     showgrid="true"
     inkscape:window-width="1276"
     inkscape:window-height="756"
     inkscape:window-x="4"
     inkscape:window-y="0"
     inkscape:window-maximized="1"
     fit-margin-top="0"
     fit-margin-left="0"
     fit-margin-right="0"
     fit-margin-bottom="0">
    <inkscape:grid
       type="xygrid"
       id="grid4144"
       originx="115.0759"
       originy="1420.2041" />
  </sodipodi:namedview>
  <metadata
     id="metadata7">
    <rdf:RDF>
      <cc:Work
         rdf:about="">
        <dc:format>image/svg+xml</dc:format>
        <dc:type
           rdf:resource="http://purl.org/dc/dcmitype/StillImage" />
        <dc:title></dc:title>
      </cc:Work>
    </rdf:RDF>
  </metadata>
  <g
     inkscape:label="Layer 1"
     inkscape:groupmode="layer"
     id="layer1"
     transform="translate(115.07586,-2340.8983)">
    <g
       style="font-style:normal;font-variant:normal;font-weight:normal;font-stretch:normal;font-size:65.03916931px;line-height:129.99999523%;font-family:Courier;-inkscape-font-specification:'Courier, Normal';text-align:start;letter-spacing:0px;word-spacing:0px;writing-mode:lr-tb;text-anchor:start;fill:#00aad4;fill-opacity:1;stroke:none;stroke-width:1px;stroke-linecap:butt;stroke-linejoin:miter;stroke-opacity:1"
       id="text4362"
       transform="matrix(1.5110399,0,0,1.5110399,61.215975,-1259.592)">
      <path
         style="font-style:normal;font-variant:normal;font-weight:900;font-stretch:normal;font-size:65.03874969px;line-height:129.99999523%;font-family:'Avenir Next';-inkscape-font-specification:'Avenir Next, Heavy';text-align:start;writing-mode:lr-tb;text-anchor:start;fill:#216778;fill-opacity:1;stroke:none"
         d="M 56.283203,0 C 48.24257,0 41.542062,1.1179433 36.181641,3.3515625 c -5.24874,2.2334681 -9.433644,5.3042837 -12.560547,9.2128905 -3.126916,3.796941 -5.363029,8.206703 -6.703125,13.232422 -1.22843,5.025114 -1.84375,10.275967 -1.84375,15.748047 l 0,2.009766 -15.074219,0 0,27.638671 15.074219,0 0,60.474611 38.527343,0 0,-60.474611 16.296876,0 0,60.474611 38.697262,0 0,-46.904298 c 0,-3.908607 0.7803,-6.868619 2.34375,-8.878906 1.67513,-2.121651 3.7967,-3.183594 6.36524,-3.183594 2.79188,0 4.85911,0.893034 6.19922,2.679687 1.45178,1.787107 2.17773,4.915877 2.17773,9.382813 l 0,46.904298 38.86328,0 29.65039,0 14.40821,-19.93555 13.5664,19.93555 44.22461,0 -1.89062,-2.56641 c 1.83524,2.08582 4.746,3.07507 7.62109,2.30469 l 110.97461,-29.73633 c 4.04296,-1.08331 6.42706,-5.208991 5.34375,-9.251951 l -3.85352,-14.382813 c -1.0833,-4.04296 -5.21094,-6.425105 -9.2539,-5.341797 L 264.36133,102.42773 c -4.04296,1.08331 -6.42511,5.21095 -5.3418,9.25391 l 3.85352,14.38281 c 0.19196,0.71643 0.48389,1.37641 0.84961,1.97852 l -30.66407,-41.60547 31.66016,-42.882812 -42.54883,0 -12.56054,18.427734 -12.73438,-18.427734 -43.88867,0 31.66015,42.882812 -20.10156,26.73633 0,-35.11133 c 0,-4.355573 -0.50273,-8.713089 -1.50781,-13.068359 -0.8934,-4.355422 -2.57048,-8.262666 -5.02734,-11.72461 -2.34519,-3.573458 -5.5809,-6.475365 -9.71289,-8.708984 -4.02032,-2.233619 -9.102,-3.351563 -15.24415,-3.351563 -5.69544,0 -10.77712,1.226794 -15.24414,3.683594 -4.35534,2.345285 -7.65125,5.138341 -9.88476,8.376953 l -0.33203,0 0,-9.714843 -35.392581,0 -2.300781,0 -16.296876,0 0,-1.171876 c 0,-3.57376 0.725955,-6.533621 2.177735,-8.878906 1.563455,-2.345285 4.246003,-3.517578 8.042969,-3.517578 1.340108,0 2.679426,0.167107 4.019531,0.501953 1.340105,0.223483 2.512501,0.559196 3.517578,1.00586 L 73.873047,2.5136719 C 71.52786,1.6203451 68.622094,1.0050705 65.160156,0.66992188 61.809891,0.22340958 58.851738,0 56.283203,0 Z M 620.77539,1.7265625 c -3.22115,0.1242765 -6.112,2.312751 -6.99219,5.5976563 L 584.04883,118.29883 c -1.08331,4.04296 1.29883,8.1706 5.34179,9.2539 l 14.38282,3.85352 c 4.04296,1.08331 8.16864,-1.30079 9.25195,-5.34375 L 642.76172,15.087891 c 1.08331,-4.042961 -1.29884,-8.1686455 -5.3418,-9.2519535 L 623.03711,1.9824219 c -0.75806,-0.2031203 -1.51838,-0.2845386 -2.26172,-0.2558594 z m -32.38672,7.8769531 c -2.67816,-0.07234 -5.30339,1.2911404 -6.74219,3.7832034 l -57.44531,99.496091 c -2.09279,3.62482 -0.85919,8.22752 2.76563,10.32031 l 12.89453,7.44532 c 3.62482,2.09279 8.22752,0.85919 10.32031,-2.76563 l 57.44531,-99.496091 c 2.09279,-3.624819 0.8592,-8.229476 -2.76562,-10.322266 L 591.9668,10.621094 C 590.83404,9.9670968 589.60602,9.6363975 588.38867,9.6035156 Z M 545.19336,24.775391 c -1.93125,0 -3.86197,0.738923 -5.3418,2.21875 l -81.23828,81.240239 c -2.95965,2.95965 -2.95965,7.72394 0,10.68359 l 10.52734,10.5293 c 2.95966,2.95965 7.7259,2.95965 10.68555,0 l 81.23828,-81.238286 c 2.95966,-2.959652 2.95966,-7.725894 0,-10.685546 L 550.53711,26.994141 c -1.47983,-1.479827 -3.4125,-2.21875 -5.34375,-2.21875 z m -63.51367,21.43164 c -1.21735,0.03288 -2.44537,0.361628 -3.57813,1.015625 l -99.49804,57.445314 c -3.62482,2.09279 -4.85842,6.69549 -2.76563,10.32031 l 7.44531,12.89453 c 2.09279,3.62482 6.6955,4.85842 10.32032,2.76563 l 99.49804,-57.445315 c 3.62482,-2.09279 4.85842,-6.695493 2.76563,-10.320313 l -7.44531,-12.894531 c -1.4388,-2.492063 -4.06403,-3.85359 -6.74219,-3.78125 z"
         transform="matrix(0.66179589,0,0,0.66179589,-116.66921,2382.7897)"
         id="path4452"
         inkscape:connector-curvature="0" />
    </g>
  </g>
</svg>
