<?xml version="1.0" encoding="UTF-8" standalone="no"?>
<!-- Created with Inkscape (http://www.inkscape.org/) -->

<svg
   xmlns:dc="http://purl.org/dc/elements/1.1/"
   xmlns:cc="http://creativecommons.org/ns#"
   xmlns:rdf="http://www.w3.org/1999/02/22-rdf-syntax-ns#"
   xmlns:svg="http://www.w3.org/2000/svg"
   xmlns="http://www.w3.org/2000/svg"
   xmlns:sodipodi="http://sodipodi.sourceforge.net/DTD/sodipodi-0.dtd"
   xmlns:inkscape="http://www.inkscape.org/namespaces/inkscape"
   width="75.18222mm"
   height="37.159401mm"
   viewBox="0 0 266.3937 131.66717"
   id="svg2"
   version="1.1"
   inkscape:version="0.91 r13725"
   sodipodi:docname="logo.svg">
  <defs
     id="defs4" />
  <sodipodi:namedview
     id="base"
     pagecolor="#ffffff"
     bordercolor="#666666"
     borderopacity="1.0"
     inkscape:pageopacity="0.0"
     inkscape:pageshadow="2"
     inkscape:zoom="0.9899495"
     inkscape:cx="-161.65379"
     inkscape:cy="227.28944"
     inkscape:document-units="px"
     inkscape:current-layer="text4362"
     showgrid="true"
     inkscape:window-width="1276"
     inkscape:window-height="756"
     inkscape:window-x="4"
     inkscape:window-y="0"
     inkscape:window-maximized="1"
     fit-margin-top="0"
     fit-margin-left="0"
     fit-margin-right="0"
     fit-margin-bottom="0">
    <inkscape:grid
       type="xygrid"
       id="grid4144"
       originx="115.0759"
       originy="1420.2032" />
  </sodipodi:namedview>
  <metadata
     id="metadata7">
    <rdf:RDF>
      <cc:Work
         rdf:about="">
        <dc:format>image/svg+xml</dc:format>
        <dc:type
           rdf:resource="http://purl.org/dc/dcmitype/StillImage" />
        <dc:title></dc:title>
      </cc:Work>
    </rdf:RDF>
  </metadata>
  <g
     inkscape:label="Layer 1"
     inkscape:groupmode="layer"
     id="layer1"
     transform="translate(115.07586,-2340.8983)">
    <g
       style="font-style:normal;font-variant:normal;font-weight:normal;font-stretch:normal;font-size:65.03916931px;line-height:129.99999523%;font-family:Courier;-inkscape-font-specification:'Courier, Normal';text-align:start;letter-spacing:0px;word-spacing:0px;writing-mode:lr-tb;text-anchor:start;fill:#00aad4;fill-opacity:1;stroke:none;stroke-width:1px;stroke-linecap:butt;stroke-linejoin:miter;stroke-opacity:1"
       id="text4362"
       transform="matrix(1.5110399,0,0,1.5110399,61.215975,-1259.592)">
      <path
         style="font-style:normal;font-variant:normal;font-weight:900;font-stretch:normal;font-size:65.03874969px;line-height:129.99999523%;font-family:'Avenir Next';-inkscape-font-specification:'Avenir Next, Heavy';text-align:start;writing-mode:lr-tb;text-anchor:start;fill:#216778"
         d="m -79.421846,2382.7897 c -5.321258,0 -9.755449,0.7404 -13.302954,2.2186 -3.473594,1.4781 -6.243318,3.5096 -8.31269,6.0963 -2.06938,2.5128 -3.54818,5.4318 -4.43505,8.7578 -0.81297,3.3256 -1.22058,6.7997 -1.22058,10.4211 l 0,1.3307 -9.97611,0 0,18.291 9.97611,0 0,40.0213 25.497694,0 0,-40.0213 10.784689,0 0,40.0213 25.610059,0 0,-31.041 c 0,-2.5867 0.516367,-4.5456 1.551056,-5.876 1.108595,-1.4041 2.512681,-2.1062 4.212528,-2.1062 1.847659,0 3.215492,0.5911 4.102368,1.7735 0.960783,1.1827 1.440897,3.2525 1.440897,6.2087 l 0,31.041 25.7202176,0 19.6217464,0 9.535471,-13.1928 8.978062,13.1928 29.267378,0 -22.060693,-29.9327 20.952482,-28.3796 -28.159167,0 -8.312693,12.1948 -8.42726,-12.1948 -29.044855,0 20.9524819,28.3796 -13.3029533,17.6939 0,-23.2372 c 0,-2.8825 -0.332895,-5.7653 -0.9980518,-8.6476 -0.591251,-2.8824 -1.7009008,-5.4686 -3.3268408,-7.7597 -1.552033,-2.3649 -3.694417,-4.2854 -6.428953,-5.7636 -2.660628,-1.4782 -6.023627,-2.2186 -10.088476,-2.2186 -3.769224,0 -7.132222,0.813 -10.088477,2.4389 -2.882347,1.5521 -5.063189,3.4 -6.541317,5.5433 l -0.220319,0 0,-6.429 -23.422276,0 -1.522415,0 -10.784689,0 0,-0.7754 c 0,-2.3651 0.480114,-4.3239 1.440896,-5.876 1.034688,-1.5521 2.810127,-2.3288 5.322943,-2.3288 0.886878,0 1.772393,0.111 2.659269,0.3326 0.886876,0.1479 1.663632,0.3698 2.328788,0.6654 l 1.663421,-19.1789 c -1.552035,-0.5912 -3.474692,-0.9988 -5.765788,-1.2206 -2.217192,-0.2955 -4.176103,-0.4428 -5.875949,-0.4428 z"
         id="path4452"
         inkscape:connector-curvature="0" />
    </g>
  </g>
</svg>
