<?xml version="1.0" encoding="UTF-8" standalone="no"?>
<!-- Created with Inkscape (http://www.inkscape.org/) -->

<svg
   xmlns:dc="http://purl.org/dc/elements/1.1/"
   xmlns:cc="http://creativecommons.org/ns#"
   xmlns:rdf="http://www.w3.org/1999/02/22-rdf-syntax-ns#"
   xmlns:svg="http://www.w3.org/2000/svg"
   xmlns="http://www.w3.org/2000/svg"
   xmlns:xlink="http://www.w3.org/1999/xlink"
   xmlns:sodipodi="http://sodipodi.sourceforge.net/DTD/sodipodi-0.dtd"
   xmlns:inkscape="http://www.inkscape.org/namespaces/inkscape"
   width="583.60297"
   height="191.66797"
   viewBox="0 0 583.60298 191.66798"
   id="svg2"
   version="1.1"
   inkscape:version="0.91 r13725"
   sodipodi:docname="logo.svg"
   inkscape:export-filename="/Users/braden/projects/fnx/logo/logo.png"
   inkscape:export-xdpi="90"
   inkscape:export-ydpi="90">
  <defs
     id="defs4">
    <linearGradient
       inkscape:collect="always"
       id="linearGradient4246">
      <stop
         style="stop-color:#ff8366;stop-opacity:1"
         offset="0"
         id="stop4248" />
      <stop
         style="stop-color:#ff0066;stop-opacity:1"
         offset="1"
         id="stop4250" />
    </linearGradient>
    <linearGradient
       inkscape:collect="always"
       id="linearGradient4238">
      <stop
         style="stop-color:#000000;stop-opacity:1;"
         offset="0"
         id="stop4240" />
      <stop
         style="stop-color:#000000;stop-opacity:0;"
         offset="1"
         id="stop4242" />
    </linearGradient>
    <linearGradient
       inkscape:collect="always"
       xlink:href="#linearGradient4238"
       id="linearGradient4244"
       x1="638.78125"
       y1="56.552727"
       x2="638.78125"
       y2="149.48676"
       gradientUnits="userSpaceOnUse" />
    <radialGradient
       inkscape:collect="always"
       xlink:href="#linearGradient4246"
       id="radialGradient4252"
       cx="481.68839"
       cy="-1427.8687"
       fx="481.68839"
       fy="-1427.8687"
       r="261.80148"
       gradientTransform="matrix(0,1.1358848,-1.1216406,0,-1178.0776,-541.21214)"
       gradientUnits="userSpaceOnUse" />
  </defs>
  <sodipodi:namedview
     id="base"
     pagecolor="#ffffff"
     bordercolor="#666666"
     borderopacity="1.0"
     inkscape:pageopacity="0.0"
     inkscape:pageshadow="2"
     inkscape:zoom="0.9899495"
     inkscape:cx="281.93923"
     inkscape:cy="43.689484"
     inkscape:document-units="px"
     inkscape:current-layer="text4362"
     showgrid="false"
     inkscape:window-width="1276"
     inkscape:window-height="756"
     inkscape:window-x="4"
     inkscape:window-y="0"
     inkscape:window-maximized="1"
     fit-margin-top="30"
     fit-margin-left="30"
     fit-margin-right="30"
     fit-margin-bottom="30"
     units="px">
    <inkscape:grid
       type="xygrid"
       id="grid4144"
       originx="25.521179"
       originy="1450.2043" />
  </sodipodi:namedview>
  <metadata
     id="metadata7">
    <rdf:RDF>
      <cc:Work
         rdf:about="">
        <dc:format>image/svg+xml</dc:format>
        <dc:type
           rdf:resource="http://purl.org/dc/dcmitype/StillImage" />
        <dc:title></dc:title>
      </cc:Work>
    </rdf:RDF>
  </metadata>
  <g
     inkscape:label="Layer 1"
     inkscape:groupmode="layer"
     id="layer1"
     transform="translate(25.521134,-2310.8983)">
    <g
       style="font-style:normal;font-variant:normal;font-weight:normal;font-stretch:normal;font-size:65.03916931px;line-height:129.99999523%;font-family:Courier;-inkscape-font-specification:'Courier, Normal';text-align:start;letter-spacing:0px;word-spacing:0px;writing-mode:lr-tb;text-anchor:start;fill:#00aad4;fill-opacity:1;stroke:none;stroke-width:1px;stroke-linecap:butt;stroke-linejoin:miter;stroke-opacity:1"
       id="text4362"
       transform="matrix(1.5110399,0,0,1.5110399,61.215975,-1259.592)">
      <path
         style="font-style:normal;font-variant:normal;font-weight:900;font-stretch:normal;font-size:65.03874969px;line-height:129.99999523%;font-family:'Avenir Next';-inkscape-font-specification:'Avenir Next, Heavy';text-align:start;writing-mode:lr-tb;text-anchor:start;fill:url(#radialGradient4252);fill-opacity:1;stroke:none"
         d="m 205.83789,30 c -8.04063,0 -14.74114,1.117943 -20.10156,3.351562 -5.24874,2.233468 -9.43364,5.304284 -12.56055,9.212891 -3.12691,3.796941 -5.36303,8.206704 -6.70312,13.232422 -1.22843,5.025114 -1.84375,10.275967 -1.84375,15.748047 l 0,2.009766 -15.07422,0 0,27.638672 15.07422,0 0,60.47461 38.52734,0 0,-60.47461 16.29687,0 0,60.47461 38.69727,0 0,-46.9043 c 0,-3.9086 0.7803,-6.86862 2.34375,-8.8789 1.67513,-2.12166 3.79669,-3.1836 6.36524,-3.1836 2.79187,0 4.8591,0.89304 6.19921,2.67969 1.45178,1.78711 2.17774,4.91588 2.17774,9.38281 l 0,46.9043 38.86328,0 29.65039,0 14.4082,-19.93555 13.56641,19.93555 44.22461,0 -33.33594,-45.23047 31.66016,-42.882812 -42.54883,0 -12.56055,18.427734 -12.73437,-18.427734 -43.88867,0 31.66015,42.882812 -20.10156,26.73633 0,-35.11133 c 0,-4.35557 -0.50273,-8.713089 -1.50781,-13.068359 -0.8934,-4.355422 -2.57049,-8.262666 -5.02735,-11.72461 -2.34519,-3.573458 -5.58091,-6.475365 -9.71289,-8.708984 -4.02033,-2.233619 -9.10199,-3.351563 -15.24414,-3.351563 -5.69544,0 -10.77712,1.226794 -15.24414,3.683594 -4.35534,2.345285 -7.65125,5.138342 -9.88476,8.376953 l -0.33204,0 0,-9.714843 -35.39257,0 -2.30079,0 -16.29687,0 0,-1.171876 c 0,-3.57376 0.72595,-6.533621 2.17773,-8.878906 1.56346,-2.345285 4.24601,-3.517578 8.04297,-3.517578 1.34011,0 2.67943,0.167107 4.01953,0.501953 1.34011,0.223483 2.51251,0.559196 3.51758,1.00586 l 2.51367,-28.980469 c -2.34518,-0.893327 -5.25095,-1.508601 -8.71289,-1.84375 C 211.36458,30.22341 208.40643,30 205.83789,30 Z m 445.07031,1.726562 c -3.22113,0.123906 -6.11005,2.312807 -6.99023,5.597657 L 614.18164,148.29883 c -1.08331,4.04294 1.3008,8.17049 5.34375,9.2539 l 14.38086,3.85352 c 4.04297,1.08326 8.1706,-1.30066 9.25391,-5.34375 L 672.89648,45.087891 c 1.08331,-4.042938 -1.30078,-8.168689 -5.34375,-9.251953 l -14.38085,-3.853516 c -0.75806,-0.203235 -1.52031,-0.284418 -2.26368,-0.25586 z m -32.38476,7.876954 c -2.67817,-0.07253 -5.30339,1.291045 -6.74219,3.783203 l -57.44531,99.496091 c -2.09279,3.62484 -0.8592,8.22752 2.76562,10.32031 l 12.89453,7.44532 c 3.62482,2.09279 8.22753,0.85921 10.32032,-2.76563 l 57.44531,-99.496091 c 2.09279,-3.624834 0.85919,-8.229476 -2.76563,-10.322266 l -12.89453,-7.443359 c -1.13275,-0.653978 -2.36077,-0.984789 -3.57812,-1.017578 z m -43.19532,15.171875 c -1.93122,0 -3.86197,0.738988 -5.34179,2.21875 l -81.24024,81.240239 c -2.95964,2.95967 -2.95964,7.72392 0,10.68359 l 10.5293,10.5293 c 2.95966,2.95967 7.72395,2.95967 10.68359,0 l 81.24024,-81.238286 c 2.95963,-2.959673 2.95963,-7.726024 0,-10.685546 l -10.5293,-10.529297 c -1.47982,-1.479762 -3.41054,-2.21875 -5.3418,-2.21875 z m -63.51562,21.43164 c -1.21734,0.03324 -2.44537,0.361496 -3.57812,1.015625 l -99.4961,57.445314 c -3.62482,2.09264 -4.85841,6.69548 -2.76562,10.32031 l 7.44531,12.89453 c 2.09279,3.62484 6.69549,4.85842 10.32031,2.76563 l 99.4961,-57.44532 c 3.62478,-2.09279 4.85841,-6.695474 2.76562,-10.320308 l -7.44336,-12.894531 c -1.4388,-2.492007 -4.06597,-3.853629 -6.74414,-3.78125 z"
         transform="matrix(0.66179593,0,0,0.66179593,-136.52309,2362.9358)"
         id="path4207"
         inkscape:connector-curvature="0" />
      <path
         style="font-style:normal;font-variant:normal;font-weight:900;font-stretch:normal;font-size:65.03874969px;line-height:129.99999523%;font-family:'Avenir Next';-inkscape-font-specification:'Avenir Next, Heavy';text-align:start;writing-mode:lr-tb;text-anchor:start;opacity:0.25;fill:url(#linearGradient4244);fill-opacity:1;stroke:none"
         d="m 638.78125,56.494141 -24.59961,91.804689 c -1.08331,4.04294 1.3008,8.17049 5.34375,9.2539 l 14.38086,3.85352 c 1.68673,0.45195 3.38602,0.29368 4.875,-0.33008 l 0,-104.582029 z m -45.36328,18.697265 -39.08203,67.691404 c -2.09279,3.62484 -0.85921,8.22752 2.76562,10.32031 l 12.89453,7.44532 c 3.62482,2.09279 8.22753,0.85921 10.32032,-2.76563 l 13.10156,-22.6914 0,-60.000004 z m -66.39844,24.769532 -38.27344,38.273442 c -2.95964,2.95952 -2.95964,7.72392 0,10.68359 l 10.5293,10.5293 c 2.95967,2.95967 7.72395,2.95967 10.68359,0 l 17.06055,-17.06055 0,-42.425782 z"
         transform="matrix(0.66179593,0,0,0.66179593,-136.52309,2362.9358)"
         id="path4235"
         inkscape:connector-curvature="0" />
    </g>
  </g>
</svg>
