<?xml version="1.0" encoding="UTF-8" standalone="no"?>
<svg
   xmlns:dc="http://purl.org/dc/elements/1.1/"
   xmlns:cc="http://creativecommons.org/ns#"
   xmlns:rdf="http://www.w3.org/1999/02/22-rdf-syntax-ns#"
   xmlns:svg="http://www.w3.org/2000/svg"
   xmlns="http://www.w3.org/2000/svg"
   xmlns:xlink="http://www.w3.org/1999/xlink"
   xmlns:sodipodi="http://sodipodi.sourceforge.net/DTD/sodipodi-0.dtd"
   xmlns:inkscape="http://www.inkscape.org/namespaces/inkscape"
   sodipodi:docname="logo.svg"
   inkscape:version="0.91 r13725"
   version="1.1"
   id="svg4239"
   viewBox="0 0 441.71091 195.15943"
   height="195.15945"
   width="441.71094"
   inkscape:export-filename="/Users/braden/projects/fnx/assets/logo.png"
   inkscape:export-xdpi="90"
   inkscape:export-ydpi="90">
  <sodipodi:namedview
     inkscape:current-layer="svg4239"
     inkscape:window-maximized="1"
     inkscape:window-y="297"
     inkscape:window-x="4"
     inkscape:cy="41.444452"
     inkscape:cx="280.82668"
     inkscape:zoom="3.7922963"
     showgrid="false"
     id="namedview4261"
     inkscape:window-height="1036"
     inkscape:window-width="1916"
     inkscape:pageshadow="2"
     inkscape:pageopacity="0"
     guidetolerance="10"
     gridtolerance="10"
     objecttolerance="10"
     borderopacity="1"
     bordercolor="#666666"
     pagecolor="#ffffff"
     showguides="false"
     fit-margin-top="40"
     fit-margin-left="40"
     fit-margin-right="40"
     fit-margin-bottom="40" />
  <metadata
     id="metadata4263">
    <rdf:RDF>
      <cc:Work
         rdf:about="">
        <dc:format>image/svg+xml</dc:format>
        <dc:type
           rdf:resource="http://purl.org/dc/dcmitype/StillImage" />
        <dc:title />
      </cc:Work>
    </rdf:RDF>
  </metadata>
  <defs
     id="defs4241">
    <inkscape:perspective
       id="perspective4548"
       inkscape:persp3d-origin="291.80149 : 63.889325 : 1"
       inkscape:vp_z="583.60299 : 95.833988 : 1"
       inkscape:vp_y="0 : 999.99997 : 0"
       inkscape:vp_x="0 : 95.833988 : 1"
       sodipodi:type="inkscape:persp3d" />
    <linearGradient
       id="b">
      <stop
         id="stop4244"
         stop-color="#ff8366"
         offset="0" />
      <stop
         id="stop4246"
         stop-color="#f06"
         offset="1" />
    </linearGradient>
    <linearGradient
       id="a">
      <stop
         id="stop4249"
         offset="0" />
      <stop
         id="stop4251"
         stop-opacity="0"
         offset="1" />
    </linearGradient>
    <linearGradient
       gradientUnits="userSpaceOnUse"
       y2="149.487"
       x2="638.78101"
       y1="56.553001"
       x1="638.78101"
       id="d"
       xlink:href="#a" />
    <radialGradient
       gradientUnits="userSpaceOnUse"
       gradientTransform="matrix(0,1.13588,-1.12164,0,-1178.078,-541.212)"
       r="261.80099"
       fy="-1427.869"
       fx="481.68799"
       cy="-1427.869"
       cx="481.68799"
       id="c"
       xlink:href="#b" />
  </defs>
  <path
     style="color:#000000;font-style:normal;font-variant:normal;font-weight:bold;font-stretch:normal;font-size:medium;line-height:129.99999523%;font-family:Seravek;-inkscape-font-specification:'Seravek, Bold';text-indent:0;text-align:start;text-decoration:none;text-decoration-line:none;text-decoration-style:solid;text-decoration-color:#000000;letter-spacing:0px;word-spacing:0px;text-transform:none;direction:ltr;block-progression:tb;writing-mode:lr-tb;baseline-shift:baseline;text-anchor:start;white-space:normal;clip-rule:nonzero;display:inline;overflow:visible;visibility:visible;opacity:1;isolation:auto;mix-blend-mode:normal;color-interpolation:sRGB;color-interpolation-filters:linearRGB;solid-color:#000000;solid-opacity:1;fill:#ff0055;fill-opacity:1;fill-rule:nonzero;stroke:none;stroke-width:7.99999905;stroke-linecap:butt;stroke-linejoin:miter;stroke-miterlimit:4;stroke-dasharray:none;stroke-dashoffset:0;stroke-opacity:1;color-rendering:auto;image-rendering:auto;shape-rendering:auto;text-rendering:auto;enable-background:accumulate"
     d="m 86.375,40 c -10.104272,0 -18.689285,2.881009 -25.123047,8.744141 -6.383062,5.71871 -9.427437,14.509696 -9.654297,25.480468 l -11.597656,0 0,25.207032 11.509766,0 0,55.728519 30.958984,0 0.002,-55.728519 16.824219,0 0,55.728519 30.962888,0 0,-29.80469 0,-17.50977 c 0,-4.6465 3.7656,-8.414059 8.41211,-8.414059 4.64652,0 8.41406,3.767559 8.41406,8.414059 l 0,47.31446 53.76954,0 12.44921,-18.67383 12.58204,18.67383 c 11.7388,-2.1869 24.60957,-5.67111 39.65039,-6.20704 -16.73082,-6.31934 -24.71961,-20.56227 -35.25391,-34.7246 l 28.09961,-40.003911 c -11.86408,-1.4469 -24.31018,-1.16436 -33.10156,0 L 213.30273,91.990234 201.46094,74.224609 c -9.013,-0.95992 -20.42205,-1.36518 -33.09375,0 l 27.9375,40.003911 -19.10352,27.07226 0,-27.82031 c 0,-5.15657 -0.52649,-10.08572 -1.58789,-14.775392 -0.9786,-4.87412 -2.68543,-9.256726 -5.14453,-13.066406 -2.3861,-3.852952 -5.57537,-6.988011 -9.44727,-9.269531 -4.0389,-2.481542 -8.88269,-3.660157 -14.29101,-3.660157 -4.60435,0 -9.05474,0.969623 -13.21875,2.882813 l -0.0137,0.0078 -0.0176,0.0078 c -1.48584,0.70165 -2.84101,1.628164 -4.13281,2.652344 l 0,-4.035157 -46.853519,0 c 0.036,-3.94951 0.9462,-6.034495 1.96289,-6.921875 1.48512,-1.20014 3.633311,-1.945312 6.914063,-1.945312 2.5464,0 4.848302,0.317561 6.933594,0.925781 l 3.867192,1.126953 2.5039,-23.779297 -2.33789,-0.957031 c -2.506115,-1.02523 -5.210154,-1.69362 -8.078124,-2.03125 C 91.593304,40.219418 88.96287,40 86.375,40 Z m 295.10742,24.626953 c -1.06196,-3e-4 -2.1195,0.02817 -3.17578,0.07617 l -22.5,83.968755 c 6.33264,4.0542 13.21311,7.37673 23.4043,6.27343 l 22.5,-83.970701 c -3.61992,-2.6474 -7.1161,-4.243328 -10.53125,-5.173828 -3.29313,-0.8972 -6.51142,-1.172928 -9.69727,-1.173828 z m -28.24609,3.132813 -43.4668,75.283204 c 5.06755,5.5551 10.85486,10.54333 20.98438,12.11523 L 374.21875,79.875 c -2.81138,-3.4941 -5.77212,-5.939956 -8.83008,-7.722656 -3.93159,-2.292101 -8.021,-3.486378 -12.15234,-4.392578 z m -32.21289,8.796875 -61.46875,61.468749 c 3.45711,6.6773 7.75722,12.99271 17.13476,17.13281 L 338.1582,93.689453 c -1.81126,-4.1026 -4.03887,-7.232693 -6.53125,-9.746094 -3.20438,-3.2315 -6.8475,-5.442018 -10.60351,-7.386718 z"
     transform="translate(0,-7.6293936e-6)"
     id="path4271"
     inkscape:connector-curvature="0"
     sodipodi:nodetypes="sccccccccccccssscccccccccccccscccscccccccscccccsscccccscccccccccccc" />
</svg>
