<?xml version="1.0" encoding="UTF-8" standalone="no"?>
<svg
   xmlns:dc="http://purl.org/dc/elements/1.1/"
   xmlns:cc="http://creativecommons.org/ns#"
   xmlns:rdf="http://www.w3.org/1999/02/22-rdf-syntax-ns#"
   xmlns:svg="http://www.w3.org/2000/svg"
   xmlns="http://www.w3.org/2000/svg"
   xmlns:xlink="http://www.w3.org/1999/xlink"
   xmlns:sodipodi="http://sodipodi.sourceforge.net/DTD/sodipodi-0.dtd"
   xmlns:inkscape="http://www.inkscape.org/namespaces/inkscape"
   sodipodi:docname="logo.svg"
   inkscape:version="0.91 r13725"
   version="1.1"
   id="svg4239"
   viewBox="0 0 441.71091 195.15943"
   height="195.15945"
   width="441.71094"
   inkscape:export-filename="/Users/braden/projects/fnx/logo/logo.png"
   inkscape:export-xdpi="90"
   inkscape:export-ydpi="90">
  <sodipodi:namedview
     inkscape:current-layer="svg4239"
     inkscape:window-maximized="1"
     inkscape:window-y="297"
     inkscape:window-x="4"
     inkscape:cy="180.50081"
     inkscape:cx="-535.77771"
     inkscape:zoom="0.29460566"
     showgrid="false"
     id="namedview4261"
     inkscape:window-height="1036"
     inkscape:window-width="1916"
     inkscape:pageshadow="2"
     inkscape:pageopacity="0"
     guidetolerance="10"
     gridtolerance="10"
     objecttolerance="10"
     borderopacity="1"
     bordercolor="#666666"
     pagecolor="#ffffff"
     showguides="false"
     fit-margin-top="40"
     fit-margin-left="40"
     fit-margin-right="40"
     fit-margin-bottom="40" />
  <metadata
     id="metadata4263">
    <rdf:RDF>
      <cc:Work
         rdf:about="">
        <dc:format>image/svg+xml</dc:format>
        <dc:type
           rdf:resource="http://purl.org/dc/dcmitype/StillImage" />
        <dc:title />
      </cc:Work>
    </rdf:RDF>
  </metadata>
  <defs
     id="defs4241">
    <inkscape:perspective
       id="perspective4548"
       inkscape:persp3d-origin="291.80149 : 63.889325 : 1"
       inkscape:vp_z="583.60299 : 95.833988 : 1"
       inkscape:vp_y="0 : 999.99997 : 0"
       inkscape:vp_x="0 : 95.833988 : 1"
       sodipodi:type="inkscape:persp3d" />
    <linearGradient
       id="b">
      <stop
         id="stop4244"
         stop-color="#ff8366"
         offset="0" />
      <stop
         id="stop4246"
         stop-color="#f06"
         offset="1" />
    </linearGradient>
    <linearGradient
       id="a">
      <stop
         id="stop4249"
         offset="0" />
      <stop
         id="stop4251"
         stop-opacity="0"
         offset="1" />
    </linearGradient>
    <linearGradient
       gradientUnits="userSpaceOnUse"
       y2="149.487"
       x2="638.78101"
       y1="56.553001"
       x1="638.78101"
       id="d"
       xlink:href="#a" />
    <radialGradient
       gradientUnits="userSpaceOnUse"
       gradientTransform="matrix(0,1.13588,-1.12164,0,-1178.078,-541.212)"
       r="261.80099"
       fy="-1427.869"
       fx="481.68799"
       cy="-1427.869"
       cx="481.68799"
       id="c"
       xlink:href="#b" />
  </defs>
  <path
     sodipodi:nodetypes="ccccccccccccccc"
     style="color:#000000;font-style:normal;font-variant:normal;font-weight:bold;font-stretch:normal;font-size:medium;line-height:129.99999523%;font-family:Seravek;-inkscape-font-specification:'Seravek, Bold';text-indent:0;text-align:start;text-decoration:none;text-decoration-line:none;text-decoration-style:solid;text-decoration-color:#000000;letter-spacing:0px;word-spacing:0px;text-transform:none;direction:ltr;block-progression:tb;writing-mode:lr-tb;baseline-shift:baseline;text-anchor:start;white-space:normal;clip-rule:nonzero;display:inline;overflow:visible;visibility:visible;opacity:1;isolation:auto;mix-blend-mode:normal;color-interpolation:sRGB;color-interpolation-filters:linearRGB;solid-color:#000000;solid-opacity:1;fill:#ff0055;fill-opacity:1;fill-rule:nonzero;stroke:none;stroke-width:7.99999905;stroke-linecap:butt;stroke-linejoin:miter;stroke-miterlimit:4;stroke-dasharray:none;stroke-dashoffset:0;stroke-opacity:1;color-rendering:auto;image-rendering:auto;shape-rendering:auto;text-rendering:auto;enable-background:accumulate"
     d="m 168.36791,74.224772 6.9841,10.00099 6.984,10.00099 13.9682,20.001968 -28.8828,40.93072 33.4328,0 12.44889,-18.67344 12.5821,18.67344 c 11.7388,-2.1869 24.6091,-5.66965 39.6499,-6.20556 -16.7308,-6.31934 -24.72,-20.56283 -35.2543,-34.72516 l 28.1005,-40.003948 c -11.86408,-1.4469 -24.31112,-1.16436 -33.1025,0 l -11.9757,17.76638 -11.84259,-17.76638 c -9.013,-0.95992 -20.4209,-1.36518 -33.0926,0 z"
     id="path4271"
     inkscape:connector-curvature="0" />
  <path
     sodipodi:nodetypes="sccccccccccccsssccscccscccccccscccccs"
     inkscape:connector-curvature="0"
     id="path4273"
     d="m 86.374665,39.999992 c -10.10427,0 -18.68928,2.88039 -25.12304,8.74352 -6.38306,5.71871 -9.427,14.51049 -9.65386,25.48126 l -11.59777,0 0,25.20684 11.50905,0 0,55.727828 30.95971,0 0.002,-55.727828 16.82483,0 0,55.727828 30.961365,0 0,-29.80454 0,-17.51005 c 0,-4.6465 3.76673,-8.413238 8.41324,-8.413238 4.64652,0 8.41323,3.766738 8.41323,8.413238 l 0,47.31459 30.11843,0 0,-41.67838 c 0,-5.15657 -0.5276,-10.08608 -1.589,-14.775748 -0.9786,-4.87412 -2.6841,-9.25712 -5.1432,-13.0668 -2.3861,-3.85295 -5.5766,-6.98783 -9.4485,-9.26935 -4.0389,-2.48154 -8.8827,-3.65943 -14.29102,-3.65943 -4.60435,0 -9.05397,0.969 -13.21798,2.88219 l -0.0148,0.008 -0.0164,0.007 c -1.48584,0.70165 -2.84088,1.62796 -4.13268,2.65214 l 0,-4.03408 -46.854495,0 c 0.036,-3.94951 0.94694,-6.03546 1.96363,-6.92284 1.48512,-1.20014 3.63388,-1.94392 6.91463,-1.94392 2.5464,0 4.84741,0.31691 6.9327,0.92513 l 3.866475,1.12724 2.50426,-23.78054 -2.33829,-0.95635 c -2.506115,-1.02523 -5.210055,-1.69338 -8.078025,-2.03101 -2.66646,-0.42316 -5.29625,-0.64249 -7.88412,-0.64249 z"
     style="color:#000000;font-style:normal;font-variant:normal;font-weight:bold;font-stretch:normal;font-size:medium;line-height:129.99999523%;font-family:Seravek;-inkscape-font-specification:'Seravek, Bold';text-indent:0;text-align:start;text-decoration:none;text-decoration-line:none;text-decoration-style:solid;text-decoration-color:#000000;letter-spacing:0px;word-spacing:0px;text-transform:none;direction:ltr;block-progression:tb;writing-mode:lr-tb;baseline-shift:baseline;text-anchor:start;white-space:normal;clip-rule:nonzero;display:inline;overflow:visible;visibility:visible;opacity:1;isolation:auto;mix-blend-mode:normal;color-interpolation:sRGB;color-interpolation-filters:linearRGB;solid-color:#000000;solid-opacity:1;fill:#ff0055;fill-opacity:1;fill-rule:nonzero;stroke:none;stroke-width:7.99999905;stroke-linecap:butt;stroke-linejoin:miter;stroke-miterlimit:4;stroke-dasharray:none;stroke-dashoffset:0;stroke-opacity:1;color-rendering:auto;image-rendering:auto;shape-rendering:auto;text-rendering:auto;enable-background:accumulate" />
  <path
     inkscape:connector-curvature="0"
     id="path4343"
     d="m 381.48332,64.626912 c -1.06196,-3e-4 -2.12094,0.029 -3.17722,0.077 l -22.49972,83.968548 c 6.33264,4.0542 13.21362,7.3762 23.40481,6.2729 L 401.7109,70.974812 c -3.61992,-2.6474 -7.11566,-4.243 -10.53081,-5.1735 -3.29313,-0.8972 -6.51092,-1.1738 -9.69677,-1.1747 z m -28.24797,3.1334 -43.46518,75.283248 c 5.06755,5.5551 10.85476,10.5434 20.98428,12.1153 l 43.46516,-75.283348 c -2.81138,-3.4941 -5.77345,-5.9409 -8.83141,-7.7236 -3.93159,-2.2921 -8.02151,-3.4854 -12.15285,-4.3916 z m -32.21113,8.7958 -61.46871,61.468848 c 3.45711,6.6773 7.75644,12.9938 17.13398,17.1339 l 61.4687,-61.468748 c -1.81126,-4.1026 -4.03972,-7.2335 -6.5321,-9.7469 -3.20438,-3.2315 -6.84586,-5.4424 -10.60187,-7.3871 z"
     style="opacity:1;fill:#ff0055;fill-opacity:1;stroke:none;stroke-width:8.69999981;stroke-miterlimit:4;stroke-dasharray:none;stroke-opacity:1" />
</svg>
